<?xml version="1.0" encoding="utf-8"?>
<!-- Generator: Adobe Illustrator 28.4.1, SVG Export Plug-In . SVG Version: 6.00 Build 0)  -->
<svg version="1.1" id="Capa_1" xmlns="http://www.w3.org/2000/svg" xmlns:xlink="http://www.w3.org/1999/xlink" x="0px" y="0px"
	 viewBox="0 0 465 125" style="enable-background:new 0 0 465 125;" xml:space="preserve" >
<style type="text/css">
	.st0{fill:#FF001E;}
</style>
<g>
	<path class="st0" d="M5.64,3.35c0.4-0.02,0.8-0.05,1.2-0.05c15.51,0,31.01,0,46.52,0c0.46,0,0.93,0,1.57,0
		c-0.2,0.57-0.32,0.94-0.47,1.29C38.35,43.03,22.24,81.46,6.12,119.89c-0.14,0.32-0.32,0.62-0.48,0.93
		C5.64,81.66,5.64,42.51,5.64,3.35z"/>
	<path class="st0" d="M139,3.37c0,39.05,0,77.95,0,116.85c-0.07,0.03-0.14,0.06-0.21,0.08C122.48,81.36,106.18,42.42,89.82,3.37
		C106.28,3.37,122.57,3.37,139,3.37z"/>
	<path class="st0" d="M374.55,46.84c3.21-0.24,6.3-0.67,9.39-0.67c10.45,0,19.16,6.06,22.21,15.45c4.11,12.64-0.2,29.36-17.5,35.1
		c-9.09,3.02-18.19,2.2-27.23-0.37c-0.42-0.12-0.72-0.8-0.99-1.27c-0.12-0.21-0.03-0.55-0.03-0.83c0-22.32,0-44.65,0-66.97
		c0-1.68,0-1.68,1.7-1.68c3.68,0,7.35,0.04,11.03-0.02c1.09-0.02,1.44,0.29,1.43,1.4c-0.05,6.22-0.02,12.44-0.02,18.66
		C374.55,46.11,374.55,46.58,374.55,46.84z M374.55,72.68c0,4.14,0.03,8.28-0.02,12.43c-0.01,1.02,0.2,1.57,1.33,1.57
		c1.03,0,2.07,0.22,3.1,0.16c5.55-0.32,10.04-2.46,12.59-7.67c1.56-3.18,1.82-6.59,1.42-10.03c-0.46-4.07-2.1-7.54-5.89-9.56
		c-3.81-2.02-7.85-1.83-11.89-0.82c-0.29,0.07-0.62,0.75-0.62,1.15C374.54,64.16,374.55,68.42,374.55,72.68z"/>
	<path class="st0" d="M279.61,45.93c0-0.27,0-0.7,0-1.13c0-5.9,0.02-11.8-0.02-17.7c-0.01-1.1,0.25-1.54,1.45-1.52
		c4.15,0.07,8.31,0.03,12.68,0.03c0,0.57,0,1.06,0,1.56c0,19.13-0.02,38.27,0.02,57.4c0.01,2.9,0.29,5.8,0.36,8.71
		c0.01,0.42-0.35,1.1-0.7,1.25c-9.18,3.76-18.65,5.31-28.45,3.05c-10.23-2.35-16.97-10.31-18.01-20.72
		c-0.63-6.29,0.14-12.26,3.47-17.72c4.34-7.13,10.91-11.05,19.01-12.41C272.69,46.18,276.07,46.19,279.61,45.93z M279.61,72.04
		c0-4.22-0.02-8.44,0.02-12.66c0.01-0.86-0.27-1.26-1.11-1.3c-1.31-0.06-2.63-0.22-3.93-0.17c-6.18,0.24-11.19,4-12.72,9.64
		c-1.07,3.95-0.85,7.9,0.69,11.71c1.14,2.81,3.13,4.88,5.95,6.07c3.26,1.38,6.64,1.51,10.1,0.89c0.79-0.14,1.03-0.49,1.02-1.27
		C279.59,80.64,279.61,76.34,279.61,72.04z"/>
	<path class="st0" d="M213.15,31.06c2.48,0,4.96,0.03,7.43-0.02c0.84-0.01,1.26,0.24,1.56,1.07c6.09,17.22,12.21,34.43,18.33,51.63
		c1.47,4.12,2.94,8.25,4.4,12.37c0.49,1.4,0.45,1.45-0.96,1.46c-4.04,0-8.07-0.03-12.11,0.02c-1.02,0.01-1.5-0.38-1.81-1.31
		c-1.5-4.49-3.07-8.96-4.57-13.45c-0.26-0.79-0.59-1.13-1.5-1.12c-7.11,0.04-14.23,0.04-21.34,0c-0.89,0-1.23,0.31-1.48,1.12
		c-1.4,4.44-2.89,8.85-4.28,13.3c-0.35,1.1-0.91,1.49-2.07,1.47c-3.44-0.07-6.87-0.02-10.31-0.03c-1.68,0-1.85-0.22-1.3-1.8
		c3.74-10.79,7.49-21.58,11.24-32.37c2.99-8.61,6.03-17.2,8.93-25.83c0.57-1.71,0.72-3.58,0.91-5.39c0.1-0.89,0.43-1.15,1.26-1.14
		C208.03,31.08,210.59,31.06,213.15,31.06z M205.25,68.97c5.34,0,10.57,0,15.95,0c-2.7-8.69-5.35-17.21-8.02-25.8
		C210.52,51.82,207.9,60.36,205.25,68.97z"/>
	<path class="st0" d="M352.16,72.19c-0.06,5.72-1.3,11.09-4.5,15.89c-4.38,6.57-10.71,9.84-18.48,10.44
		c-3.77,0.29-7.51-0.05-11.12-1.27c-6.43-2.16-11.01-6.41-13.65-12.58c-3.27-7.62-3.48-15.42-0.47-23.16
		c3.65-9.4,12.11-15.14,22.24-15.38c5.31-0.13,10.35,0.77,14.87,3.7c6.31,4.09,9.52,10.13,10.67,17.37
		C351.99,68.84,352.02,70.52,352.16,72.19z M337.67,72.1c0.03-2.65-0.39-5.6-1.7-8.35c-1.72-3.61-4.56-5.66-8.62-5.88
		c-4.16-0.22-7.25,1.66-9.02,5.3c-0.99,2.03-1.63,4.34-1.91,6.59c-0.55,4.34-0.08,8.62,2.34,12.43c4.17,6.57,13.36,6.16,16.96-0.71
		C337.19,78.66,337.67,75.61,337.67,72.1z"/>
	<path class="st0" d="M427.5,76.05c0.4,3.95,2.16,6.86,5.56,8.67c3.86,2.05,8.07,2.26,12.26,1.74c3.26-0.4,6.46-1.25,9.78-1.92
		c0.01,0.17,0.05,0.58,0.05,1c0.01,2.79-0.06,5.58,0.03,8.37c0.04,1.17-0.42,1.69-1.43,2.12c-3.31,1.41-6.76,2.17-10.33,2.4
		c-4.36,0.29-8.71,0.29-12.98-0.83c-7.66-2.03-13.04-6.67-15.61-14.17c-3.06-8.92-2.52-17.71,2.26-25.93
		c4.36-7.5,11.16-11.12,19.81-11.37c4.36-0.13,8.54,0.58,12.31,2.87c5.93,3.61,8.94,9.13,9.68,15.83c0.34,3.09-0.06,6.26-0.12,9.4
		c-0.02,1.06-0.62,1.47-1.6,1.5c-2.51,0.1-5.03,0.29-7.54,0.31c-6.88,0.04-13.75,0.01-20.63,0.01
		C428.54,76.05,428.08,76.05,427.5,76.05z M427.43,66.07c6.19,0,12.23,0,18.39,0c0.1-3.11-1-5.56-3.39-7.23
		c-3.17-2.21-6.63-2.16-9.98-0.45C429.37,59.96,427.99,62.75,427.43,66.07z"/>
	<path class="st0" d="M50.85,97.29c7.23-16.99,14.35-33.71,21.55-50.63c10.5,24.86,20.91,49.48,31.37,74.23
		c-0.49,0.04-0.83,0.08-1.18,0.08c-6.08,0-12.15-0.01-18.23,0.02c-0.85,0.01-1.25-0.25-1.56-1.06c-2.82-7.19-5.69-14.36-8.51-21.54
		c-0.33-0.83-0.74-1.13-1.65-1.12c-6.75,0.04-13.51,0.02-20.26,0.02C51.95,97.29,51.52,97.29,50.85,97.29z"/>
</g>
</svg>
