<?xml version="1.0" encoding="utf-8"?>
<!-- Generator: Adobe Illustrator 28.4.1, SVG Export Plug-In . SVG Version: 6.00 Build 0)  -->
<svg version="1.1" id="Capa_1" xmlns="http://www.w3.org/2000/svg" xmlns:xlink="http://www.w3.org/1999/xlink" x="0px" y="0px"
	 viewBox="0 0 742 182" style="enable-background:new 0 0 742 182;" xml:space="preserve">
<style type="text/css">
	.st0{fill:#FFFFFF;}
	.st1{fill:#3C8BD9;}
	.st2{fill:#FABC04;}
	.st3{fill:#34A852;}
</style>
<g>
	<path class="st0" d="M277.38,94.88c-7.42,0-14.51,0-21.59,0c-5.37,0-5.37,0-5.37-5.29c0-5.52,0-5.52,5.43-5.52c9.5,0,19,0,28.5,0
		c1.14,0,2.27,0,3.8,0c1.38,12.04-0.26,22.94-8.34,32.31c-13.88,16.09-40.53,16.32-56.42,3.08c-10.1-8.42-15.52-19.26-15.35-32.27
		c0.2-14.79,7.11-26.36,19.51-34.44c14.47-9.43,33.73-8.65,47.32,1.73c1.06,0.81,1.97,1.79,2.99,2.73c-2.61,2.4-5.11,4.7-7.49,6.89
		c-3.59-1.76-7.55-4.39-11.9-5.7c-18.23-5.49-36.52,7.16-38.26,25.91c-1.17,12.71,3.77,22.46,14.35,29.45
		c11.49,7.59,29.12,5.1,37.86-5.47C275.47,104.61,276.96,100.19,277.38,94.88z"/>
	<path class="st0" d="M454.04,81.94c0.16-1.76,0.28-2.98,0.41-4.43c3.23,0,6.42,0,9.86,0c0.07,0.94,0.18,1.86,0.19,2.79
		c0.01,15.92,0.13,31.85-0.04,47.77c-0.1,9.7-3.49,18.09-12.77,22.32c-13.25,6.05-27.91,2-34.87-11.31
		c-0.21-0.41-0.35-0.86-0.62-1.54c3.14-1.33,6.17-2.61,9.47-4.01c2.67,4.89,6.37,8.79,12,9.19c3.26,0.24,6.96-0.48,9.9-1.92
		c5.54-2.72,7.73-11.98,6.08-17.53c-2.3,1.43-4.46,3.27-6.96,4.22c-7.99,3.03-15.56,1.46-22.16-3.62
		c-8.51-6.56-12.09-15.51-10.14-26.1c2.08-11.28,8.91-18.69,20.18-21.31c6.4-1.49,12.57-0.43,17.69,4.24
		C452.67,81.06,453.16,81.32,454.04,81.94z M440.25,85.96c-1.32,0.19-2.67,0.23-3.94,0.58c-7.9,2.2-12.89,11.55-10.69,19.94
		c1.9,7.23,7.36,11.9,13.67,12.31c7.72,0.5,14.06-5.11,15.39-13.16C456.33,95.71,449.94,85.74,440.25,85.96z"/>
	<path class="st0" d="M633.25,127.34c-0.31,0.1-0.49,0.2-0.67,0.21c-9.02,0.48-9.01,0.48-11.97-8.14c-1.14-3.33-2.44-6.61-3.5-9.97
		c-0.46-1.45-1.2-1.92-2.67-1.91c-9.02,0.05-18.04-0.03-27.05,0.11c-0.91,0.01-2.28,0.99-2.63,1.85
		c-2.18,5.38-4.09,10.87-6.23,16.27c-0.3,0.76-1.3,1.68-2.03,1.74c-2.66,0.21-5.34,0.08-8.39,0.08c2.22-5.98,4.31-11.67,6.45-17.35
		c5.38-14.26,10.78-28.5,16.16-42.75c1.31-3.47,2.6-6.95,3.91-10.42c0.2-0.53,0.42-1.46,0.71-1.5c3.05-0.37,6.11-0.76,9.17-0.73
		c0.84,0.01,2.06,1.27,2.43,2.22c3.4,8.69,6.68,17.42,9.95,26.16c5.35,14.26,10.66,28.54,15.99,42.81
		C633.04,126.45,633.13,126.9,633.25,127.34z M601.27,66.07c-0.34,0.01-0.67,0.03-1.01,0.04c-3.93,10.89-7.86,21.77-11.87,32.85
		c8.55,0,16.45,0,24.83,0C609.16,87.78,605.21,76.93,601.27,66.07z"/>
	<path class="st0" d="M676.71,121.44c-3.8,2.33-7.14,5.33-11.04,6.6c-12.44,4.07-23.05-2.86-27.81-13.12
		c-4.94-10.66-3.15-24.21,5.87-32.77c9.06-8.61,23.45-8.07,31.61,1.49c0.18,0.21,0.43,0.37,0.99,0.85c0.14-0.92,0.33-1.58,0.33-2.23
		c-0.02-8.15,0.01-16.31-0.14-24.46c-0.04-2.3,0.5-3.24,3-3.15c6.57,0.25,5.52-0.76,5.53,5.44c0.05,21.11,0.02,42.22,0.02,63.33
		c0,1.24,0,2.47,0,3.94c-2.85,0-5.46,0-8.36,0C676.71,125.22,676.71,123.16,676.71,121.44z M676.9,102.38
		c-0.3-1.97-0.42-3.99-0.92-5.91C673,85,659.83,80.57,650.6,87.88c-5.78,4.58-8.08,14.1-5.31,21.96
		c4.25,12.04,18.89,15.08,27.17,5.59C675.7,111.73,676.79,107.24,676.9,102.38z"/>
	<path class="st0" d="M532.52,111.82c2.59,1.74,5.26,3.54,8.14,5.47c-4.36,6.51-10.3,10.24-17.67,11.37
		c-12.83,1.97-23.85-4.16-28.42-16.26c-5.37-14.24,0.92-32.21,17.42-35.93c10.24-2.32,20.98,2.42,25.99,11.82
		c1.2,2.25,2.16,4.63,3.36,7.23c-8.37,3.48-16.43,6.83-24.49,10.18c-2.99,1.24-5.91,2.69-8.99,3.66c-2.78,0.88-2.02,2.16-0.87,3.72
		c5.13,6.97,15.55,7.82,22.08,1.82C530.13,113.93,531.2,113,532.52,111.82z M503.91,101.76c8.06-3.34,15.84-6.57,23.57-9.77
		c-0.79-4.1-6.34-7.04-11.24-6.2C508.62,87.08,502.94,94.26,503.91,101.76z"/>
	<path class="st0" d="M406.93,102.64c-0.03,15.08-11.23,26.15-26.3,26.25c-14.12,0.09-26.4-11.61-25.91-27.61
		c0.44-14.35,12.44-25.7,26.43-25.35C396.11,76.3,406.95,87.22,406.93,102.64z M365.92,102.2c0,0.67-0.05,1.35,0.01,2.01
		c0.54,6.38,3.79,11.11,9.56,13.57c5.32,2.27,10.57,1.21,15.01-2.58c7.05-6.01,7.33-18.45,0.68-24.93
		c-4.84-4.71-12.37-5.73-17.94-2.15C368.2,91.38,365.94,96.25,365.92,102.2z"/>
	<path class="st0" d="M347.61,102.44c0.85,14.16-11.17,26.73-26.26,26.47c-14.54-0.25-25.91-11.69-25.9-26.53
		c0.01-15.01,11.32-26.14,26.26-26.44C335.92,75.66,348.44,87.69,347.61,102.44z M321.85,86.12c-7-0.92-15.3,6.1-15.25,16.2
		c0.04,9.33,6.48,16.41,15.06,16.42c8.55,0.01,15.2-7.16,15.14-16.4C336.73,93.52,330.44,85.82,321.85,86.12z"/>
	<path class="st0" d="M732.51,87.33c-2.83,1.15-5.19,2.1-7.84,3.18c-2.04-3.58-5.08-5.82-9.2-6.39c-3.82-0.53-7.47-0.06-10.6,2.34
		c-3.22,2.48-2.94,7.17,0.82,8.67c4.39,1.75,9.07,2.78,13.66,3.99c4.02,1.06,7.94,2.34,10.59,5.76c6.02,7.77,3.83,17.4-5.57,21.93
		c-11.12,5.35-26.24,2.45-32.28-11.66c2.32-0.94,4.6-2.04,7-2.72c0.51-0.14,1.73,1.08,2.15,1.92c3.61,7.19,13.77,8.33,19.26,5.15
		c2.29-1.32,3.5-3.13,3.4-5.82c-0.09-2.58-1.28-4.49-3.67-5.29c-3.68-1.24-7.49-2.08-11.18-3.31c-3.15-1.05-6.49-1.94-9.24-3.69
		c-8.26-5.25-8.69-14.38-1.07-20.76c7.74-6.47,23.97-6.55,31.01,2.54C730.68,84.35,731.42,85.67,732.51,87.33z"/>
	<path class="st0" d="M474.12,49.17c3.7,0,7.13,0,10.91,0c0.07,1.02,0.2,2.03,0.2,3.03c0.01,23.87-0.03,47.74,0.06,71.61
		c0.01,2.63-0.71,3.59-3.37,3.36c-2.54-0.21-5.11-0.05-7.81-0.05C474.12,100.98,474.12,75.23,474.12,49.17z"/>
</g>
<g>
	<path class="st1" d="M67.11,27.39c1.13-2.74,2.31-5.46,4.02-7.91c5.16-7.34,12.15-11.74,21.06-12.89
		c12.48-1.61,24.22,4.4,30.43,15.56c9.47,17.03,19.39,33.81,29.09,50.71c10.26,17.87,20.6,35.68,30.77,53.6
		c2.29,4.03,3.77,8.31,3.96,12.96c0.48,11.8-4.21,21.04-14.05,27.55c-4.4,2.91-9.36,4.31-14.64,4.5c-9.2,0.35-16.95-2.88-23.31-9.5
		c-2.61-2.72-4.43-5.97-6.29-9.2c-10.43-18.12-20.87-36.23-31.31-54.34c-0.19-0.33-0.44-0.62-0.66-0.92
		c0.04-0.25-0.1-0.43-0.22-0.63c-6.07-10.77-12.3-21.45-18.49-32.14c-2.57-4.43-5.22-8.81-7.71-13.28
		c-2.05-3.67-3.33-7.62-3.74-11.83c-0.25-2.53-0.27-5.04,0.18-7.54C66.47,30.51,66.8,28.95,67.11,27.39z"/>
	<path class="st2" d="M67.11,27.39c-0.31,1.56-0.64,3.12-0.92,4.69c-0.45,2.5-0.42,5.02-0.18,7.54c0.41,4.21,1.69,8.16,3.74,11.83
		c2.49,4.47,5.15,8.85,7.71,13.28c6.2,10.7,12.42,21.38,18.49,32.14c0.11,0.2,0.26,0.38,0.22,0.63c-1.74,2.97-3.48,5.94-5.21,8.92
		c-8.65,14.87-17.29,29.74-25.93,44.61c-0.32,0.55-0.62,1.1-0.93,1.65c-0.21-0.32-0.14-0.61,0.03-0.93c0.15-0.29,0.29-0.59,0.39-0.9
		c1.62-5.36,1.94-10.78,0.73-16.27c-4-18.14-23.68-27.78-40.26-21.24c-4.73,1.87-8.69,4.84-12.04,8.64
		c-0.15,0.17-0.3,0.26-0.52,0.26c0.02-0.73,0.6-1.15,0.93-1.71c3.85-6.73,7.71-13.45,11.58-20.17
		c13.9-24.09,27.81-48.19,41.72-72.28C66.79,27.84,66.96,27.62,67.11,27.39z"/>
	<path class="st3" d="M12.43,122.24c0.22,0,0.37-0.09,0.52-0.26c3.35-3.8,7.31-6.77,12.04-8.64c16.58-6.54,36.26,3.1,40.26,21.24
		c1.21,5.5,0.9,10.91-0.73,16.27c-0.09,0.31-0.23,0.61-0.39,0.9c-0.17,0.31-0.24,0.61-0.03,0.93c-2.37,4.77-5.36,9.07-9.51,12.49
		c-4.31,3.54-9.25,5.55-14.79,6.16c-6.45,0.71-12.6-0.23-18.31-3.37c-8.17-4.48-13.18-11.39-15.12-20.47
		c-1.77-8.25-0.09-15.89,4.51-22.92C11.39,123.8,11.91,123.02,12.43,122.24z"/>
</g>
</svg>
