<?xml version="1.0" encoding="utf-8"?>
<!-- Generator: Adobe Illustrator 28.4.1, SVG Export Plug-In . SVG Version: 6.00 Build 0)  -->
<svg version="1.1" id="google_search_console_logo" xmlns="http://www.w3.org/2000/svg" xmlns:xlink="http://www.w3.org/1999/xlink"
	 x="0px" y="0px" viewBox="0 0 676.4 311.5" style="enable-background:new 0 0 676.4 311.5;" xml:space="preserve">
<style type="text/css">
	.st0{fill:none;}
	.st1{clip-path:url(#SVGID_00000071535499799776489590000011279414797330934419_);}
	.st2{fill:#FFFFFF;}
	.st3{fill:#4285F4;}
	.st4{fill:#DB4437;}
	.st5{fill:#F4B400;}
	.st6{fill:#0F9D58;}
</style>
<rect id="Artboard1" class="st0" width="676.4" height="311.5"/>
<g>
	<defs>
		<rect id="SVGID_1_" width="676.4" height="311.5"/>
	</defs>
	<clipPath id="SVGID_00000156586375545358718680000015636655128518968763_">
		<use xlink:href="#SVGID_1_"  style="overflow:visible;"/>
	</clipPath>
	<g id="Group_1737" style="clip-path:url(#SVGID_00000156586375545358718680000015636655128518968763_);">
		<g id="Artboard" transform="translate(-0.949)">
			<g id="XMLID_41_" transform="translate(0 230.525)">
				<path id="Shape" class="st2" d="M26.4,79c-5.8-0.1-11.4-2-16.1-5.4c-5.2-3.6-8.9-9-10.3-15.1l8.9-3.6c1,4.1,3.3,7.8,6.5,10.5
					c3,2.8,7,4.3,11.1,4.3c3.9,0.1,7.7-1,10.8-3.3c2.9-2.1,4.6-5.4,4.5-9c0-4.2-1.5-7.5-4.5-9.7c-3-2.3-7.8-4.5-14.2-6.4
					c-6.7-2.1-11.8-4.9-15.2-8.2c-3.5-3.4-5.4-8-5.2-12.9C2.7,14.8,5.1,9.6,9.2,6c4.3-4,9.9-6,16.8-6c6.4,0,11.6,1.6,15.6,4.8
					c4,3.2,6.6,6.7,7.8,10.5L40.5,19c-0.8-2.7-2.5-5-4.7-6.7c-2.5-2.1-5.7-3.1-9.7-3.1c-3.5-0.1-6.8,1-9.6,3.1c-2.5,1.8-4,4.7-4,7.8
					c0,2.8,1.4,5.4,3.6,7.1c3.2,2.3,6.9,4.1,10.7,5.2c3.7,1.2,6.9,2.4,9.3,3.5c2.7,1.3,5.2,2.7,7.6,4.5c2.5,1.8,4.5,4.2,5.8,6.9
					c1.4,3,2,6.3,2,9.7c0.1,3.4-0.7,6.8-2.3,9.8c-1.4,2.8-3.5,5.1-6,6.9c-2.5,1.7-5.2,3-8.1,3.9C32.4,78.5,29.4,79,26.4,79L26.4,79z
					"/>
				<path id="Shape1" class="st2" d="M83.5,79c-7.8,0-14.2-2.6-19.1-7.8C59.5,66,57,59.4,57,51.4c-0.1-7.1,2.4-14.1,7.1-19.5
					c4.5-5.3,11.2-8.4,18.2-8.2c7.7,0,13.8,2.5,18.4,7.5c4.6,5,6.9,11.7,6.9,20.1l-0.1,1.8H66.8c0.1,4.6,1.9,9.1,5.2,12.4
					c3,3,7,4.6,11.2,4.5c6.9,0,11.7-3,14.2-8.9l8.7,3.6c-1.7,4.1-4.6,7.6-8.3,10.1C93.9,77.7,89.2,79,83.5,79L83.5,79z M97.4,45.2
					c-0.3-3.2-1.8-6.2-4-8.4c-2.5-2.6-6.2-4-11.1-4c-3.4-0.1-6.7,1.2-9.3,3.4c-2.7,2.4-4.6,5.6-5.4,9.1L97.4,45.2L97.4,45.2z"/>
				<path id="Shape2" class="st2" d="M130.8,79c-5,0.2-9.9-1.5-13.8-4.8c-6.9-6.3-7.4-17-1.1-23.9c0.6-0.7,1.4-1.4,2.1-2
					c4.4-3.2,9.7-4.8,16.2-4.8c5.7,0,10.4,1.1,14,3.1v-1.5c0.1-3.5-1.3-6.8-3.9-9.2c-2.6-2.3-6.1-3.6-9.6-3.5c-2.7,0-5.3,0.7-7.7,2
					c-2.2,1.2-3.9,3.2-4.7,5.5l-8.9-3.8c1.2-3.1,3.5-5.9,7.1-8.6c3.6-2.6,8.2-4,13.9-4c6.6,0,12.1,1.9,16.5,5.8
					c4.4,3.9,6.5,9.3,6.5,16.3v31.5h-9.3v-7.2h-0.4C143.9,76.1,138.2,79,130.8,79z M132.3,70.2c4.1,0,8-1.6,10.9-4.5
					c3.1-2.6,5-6.5,4.9-10.6c-2.7-2.2-6.8-3.4-12.4-3.4c-4.7,0-8.3,1-10.6,3.1c-2.2,1.7-3.6,4.4-3.6,7.2c-0.1,2.5,1.2,4.8,3.3,6
					C127,69.4,129.7,70.2,132.3,70.2L132.3,70.2z"/>
				<path id="Shape3" class="st2" d="M176.5,77.3h-9.7V25.6h9.3V34h0.4c1.1-3,3.3-5.5,6.1-6.9c2.7-1.7,5.8-2.6,8.9-2.7
					c2.5-0.1,4.9,0.4,7.3,1.2l-3.7,9.1c-1.7-0.6-3.4-0.8-5.2-0.7c-3.6,0-7,1.5-9.3,4.2c-2.8,2.9-4.2,6.9-4,10.9L176.5,77.3z"/>
				<path id="Shape4" class="st2" d="M224.4,79c-7.2,0.2-14.2-2.6-19.2-7.8c-5-5.3-7.5-11.8-7.5-19.7s2.5-14.4,7.5-19.7
					s11.4-7.8,19.2-7.8c5.8,0,10.6,1.4,14.4,4.2c3.7,2.7,6.6,6.4,8.3,10.6l-8.9,3.7c-2.6-6.5-7.5-9.7-14.4-9.7
					c-4.4,0-8.5,2-11.4,5.3c-6.6,7.8-6.6,19.2,0,26.9c2.9,3.3,7,5.3,11.4,5.3c7.3,0,12.2-3.2,15-9.7l8.7,3.7
					c-1.8,4.3-4.7,7.9-8.5,10.7C234.7,77.7,229.6,79.2,224.4,79z"/>
				<path id="Shape5" class="st2" d="M263.1,1.7v23.9l-0.4,7.2h0.4c1.6-2.7,3.9-4.8,6.7-6.3c3-1.7,6.3-2.6,9.7-2.6
					c6.4,0,11.3,2,14.7,5.9s5,9.2,5,15.8v31.6h-9.7V47.1c0-9.6-4.3-14.4-12.8-14.4c-3.9-0.1-7.5,1.7-9.8,4.8
					c-2.5,3.2-3.9,7.1-3.8,11.1v28.6h-9.7V1.7H263.1L263.1,1.7z"/>
			</g>
			<g id="XMLID_39_" transform="translate(318.223 230.442)">
				<path id="Shape6" class="st2" d="M39.3,79.1c-11.1,0-20.5-3.8-28-11.3S0,50.9,0,39.5s3.8-20.6,11.3-28.2C18.8,3.8,28.1,0,39.3,0
					c11.4,0,20.6,4.1,27.8,12.4l-6.8,6.5c-5.1-6.4-12.1-9.6-21.1-9.6c-7.8-0.2-15.3,2.8-20.9,8.3c-5.7,5.5-8.5,12.9-8.5,21.9
					s2.8,16.3,8.5,21.9c5.5,5.5,13.1,8.5,20.9,8.3c9.1,0,16.8-3.6,23.3-11l6.8,6.8c-3.6,4.2-8,7.6-13,9.9
					C51,77.9,45.2,79.2,39.3,79.1L39.3,79.1z"/>
				<path id="Shape7" class="st2" d="M80.6,31.9c5-5.3,11.4-7.8,19.2-7.8c7.2-0.2,14.2,2.6,19.2,7.8c5,5.3,7.5,11.8,7.5,19.7
					s-2.5,14.4-7.5,19.7s-11.4,7.8-19.2,7.8c-7.2,0.2-14.2-2.6-19.2-7.8c-5-5.3-7.5-11.8-7.5-19.7S75.5,37.1,80.6,31.9z M87.7,65.1
					c6.2,6.6,16.6,6.9,23.1,0.6c0.2-0.2,0.4-0.4,0.6-0.6c3.4-3.4,5-7.9,5-13.5s-1.7-10.2-5-13.5c-6.2-6.6-16.6-6.9-23.1-0.6
					c-0.2,0.2-0.4,0.4-0.6,0.6c-3.4,3.4-5,7.9-5,13.5C82.8,57.2,84.4,61.7,87.7,65.1L87.7,65.1z"/>
				<path id="Shape8" class="st2" d="M142.5,25.7v7.2h0.4c1.6-2.7,3.9-4.8,6.7-6.3c3-1.7,6.3-2.6,9.7-2.6c6.4,0,11.3,2,14.7,5.9
					c3.4,4,5,9.2,5,15.8v31.6h-9.7V47.2c0-9.6-4.3-14.4-12.8-14.4c-3.9-0.1-7.5,1.7-9.8,4.8c-2.5,3.2-3.9,7.1-3.8,11.1v28.6h-9.7
					V25.7H142.5L142.5,25.7z"/>
				<path id="Shape9" class="st2" d="M207.4,79.1c-5.8,0-10.6-1.4-14.3-4.2c-3.7-2.7-6.5-6.3-8.3-10.6l8.7-3.6
					c2.7,6.5,7.4,9.7,14,9.7c2.6,0.1,5.2-0.6,7.4-2c1.8-1.1,2.9-3.1,2.9-5.3c0-3.4-2.4-5.7-7.1-6.9l-10.5-2.6
					c-3.4-0.9-6.6-2.6-9.4-4.8c-2.9-2.3-4.6-5.9-4.5-9.6c0-4.5,2.1-8.3,6.1-11.1c8-5.3,18.2-5.7,26.7-1.2c3.5,2,6.3,5.1,7.7,8.9
					l-8.4,3.5c-1.9-4.5-5.9-6.9-11.8-6.9c-2.5-0.1-5.1,0.5-7.3,1.8c-1.8,0.9-3,2.8-3,4.9c0,3,2.3,5,6.9,6l10.2,2.4
					c4.9,1.2,8.4,3.1,10.8,5.8c2.3,2.6,3.5,5.9,3.5,9.3c0,4.6-2.1,8.9-5.7,11.6C218.2,77.6,213.3,79.1,207.4,79.1L207.4,79.1z"/>
				<path id="Shape10" class="st2" d="M238.9,31.9c5-5.3,11.4-7.8,19.2-7.8c7.2-0.2,14.2,2.6,19.2,7.8c5,5.3,7.5,11.8,7.5,19.7
					s-2.5,14.4-7.5,19.7s-11.4,7.8-19.2,7.8c-7.2,0.2-14.2-2.6-19.2-7.8c-5-5.3-7.5-11.8-7.5-19.7S233.9,37.1,238.9,31.9z
					 M246.2,65.1c6.2,6.6,16.6,6.9,23.1,0.6c0.2-0.2,0.4-0.4,0.6-0.6c3.4-3.4,5-7.9,5-13.5s-1.7-10.2-5-13.5
					c-6.2-6.6-16.6-6.9-23.1-0.6c-0.2,0.2-0.4,0.4-0.6,0.6c-3.4,3.4-5,7.9-5,13.5S242.8,61.7,246.2,65.1L246.2,65.1z"/>
				<path id="Shape11" class="st2" d="M301.4,77.4h-9.7V1.8h9.7V77.4z"/>
				<path id="Shape12" class="st2" d="M334.8,79.1c-7.8,0-14.2-2.6-19.1-7.8s-7.3-11.8-7.3-19.7c-0.1-7.1,2.4-14.1,7.1-19.5
					c4.5-5.3,11.2-8.4,18.2-8.2c7.7,0,13.8,2.5,18.4,7.5c4.6,5,6.9,11.7,6.9,20.1l-0.1,1.8h-40.9c0.1,4.6,1.9,9.1,5.2,12.4
					c3,3,7,4.6,11.2,4.5c6.9,0,11.7-3,14.2-8.9l8.7,3.6c-1.7,4.1-4.6,7.6-8.3,10.1C345.2,77.8,340.4,79.1,334.8,79.1L334.8,79.1z
					 M348.8,45.3c-0.3-3.2-1.8-6.2-4-8.4c-2.5-2.6-6.2-4-11.1-4c-3.4-0.1-6.7,1.2-9.3,3.4c-2.7,2.4-4.6,5.6-5.4,9.1L348.8,45.3z"/>
			</g>
			<g id="XMLID_37_">
				<path id="Shape13" class="st3" d="M0,85.7C0,38.5,39.7,0,87,0c26.1,0,44.7,10.3,58.8,23.7l-16.5,16.5
					c-10-9.5-23.7-16.7-42.3-16.7c-34.5,0-61.4,27.8-61.4,62.2s26.9,62.2,61.4,62.2c22.4,0,35.1-9,43.3-17.1
					c6.7-6.7,11.1-16.3,12.7-29.4H87V78.1h78.9c0.9,4.8,1.3,9.8,1.3,14.7c0,17.6-4.7,39.4-20.2,54.7c-15,15.7-34.3,24-59.8,24
					C39.7,171.3,0,132.9,0,85.7z"/>
				<path id="Shape14" class="st4" d="M230.7,61.1c-30.5,0-55.4,23.2-55.4,55.2c0,31.8,24.8,55.2,55.4,55.2s55.4-23.4,55.4-55.2
					C286.1,84.3,261.3,61.1,230.7,61.1z M230.7,149.6c-16.7,0-31.2-13.7-31.2-33.5c0-19.9,14.4-33.5,31.2-33.5
					c16.7,0,31.2,13.6,31.2,33.5C261.9,135.9,247.4,149.6,230.7,149.6L230.7,149.6z"/>
				<path id="Shape15" class="st5" d="M351.6,61.1c-30.5,0-55.4,23.2-55.4,55.2c0,31.8,24.8,55.2,55.4,55.2s55.4-23.4,55.4-55.2
					C406.9,84.3,382.1,61.1,351.6,61.1L351.6,61.1z M351.6,149.6c-16.7,0-31.2-13.7-31.2-33.5c0-19.9,14.4-33.5,31.2-33.5
					s31.2,13.6,31.2,33.5C382.7,135.9,368.2,149.6,351.6,149.6L351.6,149.6z"/>
				<path id="Shape16" class="st3" d="M499.8,64.3v9H499c-5.4-6.5-15.8-12.4-29.1-12.4c-27.6,0-52.9,24.2-52.9,55.4
					c0,30.9,25.3,55,52.9,55c13.2,0,23.7-5.9,29.1-12.6h0.8v8c0,21.1-11.3,32.3-29.4,32.3c-14.9,0-24-10.6-27.8-19.6l-21.1,8.8
					c6,14.7,22.2,32.7,49,32.7c28.4,0,52.4-16.7,52.4-57.5V64.3H499.8z M472.1,149.6c-16.7,0-30.7-14-30.7-33.3
					c0-19.4,14-33.6,30.7-33.6c16.5,0,29.4,14.2,29.4,33.6C501.6,135.7,488.5,149.6,472.1,149.6z"/>
				<rect id="Rectangle-path" x="539.7" y="5.9" class="st6" width="24.2" height="162.1"/>
				<path id="Shape17" class="st4" d="M630.3,149.6c-12.4,0-21.1-5.7-26.8-16.7l73.8-30.5l-2.5-6.2c-4.6-12.4-18.6-35.1-47.2-35.1
					c-28.4,0-52.1,22.4-52.1,55.2c0,30.9,23.3,55.2,54.7,55.2c25.3,0,39.8-15.5,46-24.5l-18.8-12.6
					C651.2,143.5,642.7,149.6,630.3,149.6z M628.5,82.3c9.6,0,17.8,4.7,20.4,11.8l-49.3,20.4C598.9,93.2,616.1,82.3,628.5,82.3
					L628.5,82.3z"/>
			</g>
		</g>
	</g>
</g>
</svg>
